<svg xmlns="http://www.w3.org/2000/svg" xmlns:svg="http://www.w3.org/2000/svg" id="svg4347" width="48" height="48" version="1.1"><metadata id="metadata4352"/><g id="layer1" transform="translate(0,-1004.3622)"><rect style="fill:none" id="rect4438" width="44.7" height="47.07" x="1.357" y="1004.899"/><path id="path4440" d="m 29.874052,1037.8071 c -0.170513,-1.8828 -0.105106,-3.1968 -0.105106,-4.917 0.852576,-0.4474 2.380226,-3.2994 2.638334,-5.7089 0.670389,-0.054 1.727363,-0.7089 2.036865,-3.2912 0.167015,-1.3862 -0.496371,-2.1665 -0.900473,-2.4118 1.090848,-3.2807 3.356621,-13.4299 -4.190513,-14.4788 -0.776672,-1.364 -2.765648,-2.0544 -5.350262,-2.0544 -10.340807,0.1905 -11.588155,7.8088 -9.321205,16.5332 -0.402943,0.2453 -1.066322,1.0256 -0.900475,2.4118 0.310672,2.5823 1.366476,3.2362 2.036857,3.2912 0.256949,2.4083 1.845322,5.2615 2.700243,5.7089 0,1.7202 0.06426,3.0342 -0.106272,4.917 -2.046213,5.5007 -15.8522501,3.9567 -16.4899366,14.5661 H 46.303254 c -0.636524,-10.6094 -14.38299,-9.0654 -16.429202,-14.5661 z" style="opacity:.5"/></g></svg>